<svg xmlns="http://www.w3.org/2000/svg" viewBox="0 0 96 96" role="img" aria-label="Agriculture">
  <rect width="96" height="96" rx="22" fill="#f4ca66"/>
  <path d="M17 63c18-14 42-18 62-10v18H17Z" fill="#247445"/>
  <path d="M17 72c20-9 42-10 62-4v9H17Z" fill="#1b5f38"/>
  <path d="M48 19c-8 8-11 17-8 27 10-3 17-10 20-22-5 0-9-2-12-5Z" fill="#2d8a50"/>
  <path d="M44 49c-1-12 2-23 10-33" fill="none" stroke="#1d2b20" stroke-width="4" stroke-linecap="round"/>
  <path d="M25 60c11-5 23-7 36-5" fill="none" stroke="#f8faf6" stroke-width="4" stroke-linecap="round" opacity=".85"/>
  <circle cx="73" cy="25" r="8" fill="#fff3dc"/>
</svg>
