<svg xmlns="http://www.w3.org/2000/svg" width="1600" height="1000" viewBox="0 0 1600 1000">
  <defs>
    <linearGradient id="sky" x1="0" y1="0" x2="1" y2="1">
      <stop offset="0" stop-color="#dff2e4"/>
      <stop offset="0.48" stop-color="#f5fbef"/>
      <stop offset="1" stop-color="#cde9d5"/>
    </linearGradient>
    <linearGradient id="field" x1="0" y1="0" x2="1" y2="0">
      <stop offset="0" stop-color="#1b5e20"/>
      <stop offset="0.5" stop-color="#43a047"/>
      <stop offset="1" stop-color="#8bc34a"/>
    </linearGradient>
    <filter id="soft">
      <feGaussianBlur stdDeviation="18"/>
    </filter>
  </defs>
  <rect width="1600" height="1000" fill="url(#sky)"/>
  <circle cx="1240" cy="180" r="92" fill="#fff7c2" opacity="0.95"/>
  <circle cx="340" cy="170" r="180" fill="#ffffff" opacity="0.35" filter="url(#soft)"/>
  <path d="M0 610 C280 520 470 700 760 610 C1040 526 1260 610 1600 540 L1600 1000 L0 1000 Z" fill="#d9efc7"/>
  <path d="M0 690 C270 610 520 780 820 680 C1080 594 1300 720 1600 620 L1600 1000 L0 1000 Z" fill="url(#field)"/>
  <g opacity="0.22" stroke="#ffffff" stroke-width="4">
    <path d="M120 1000 C360 850 520 760 760 650"/>
    <path d="M330 1000 C520 835 680 745 900 650"/>
    <path d="M560 1000 C690 850 860 735 1070 645"/>
    <path d="M830 1000 C930 835 1080 715 1290 620"/>
    <path d="M1100 1000 C1190 835 1320 720 1510 625"/>
  </g>
  <g transform="translate(1040 490)">
    <rect x="20" y="70" width="210" height="84" rx="28" fill="#263238"/>
    <rect x="70" y="20" width="96" height="80" rx="24" fill="#455a64"/>
    <circle cx="72" cy="165" r="34" fill="#102027"/>
    <circle cx="185" cy="165" r="34" fill="#102027"/>
    <rect x="105" y="-25" width="28" height="58" rx="12" fill="#66bb6a"/>
    <circle cx="119" cy="-36" r="18" fill="#a5d6a7"/>
  </g>
  <g opacity="0.46" fill="#2e7d32">
    <circle cx="220" cy="720" r="8"/>
    <circle cx="250" cy="760" r="6"/>
    <circle cx="310" cy="700" r="7"/>
    <circle cx="1380" cy="680" r="8"/>
    <circle cx="1420" cy="730" r="6"/>
  </g>
</svg>
